<svg version="1.1" xmlns="http://www.w3.org/2000/svg" viewBox="0 0 255.20001220703125 224.79998779296875" width="765.6000366210938" height="674.3999633789062">
  <!-- svg-source:excalidraw -->
  
  <defs>
    <style class="style-fonts">
      @font-face {
        font-family: "Virgil";
        src: url("https://excalidraw.com/Virgil.woff2");
      }
      @font-face {
        font-family: "Cascadia";
        src: url("https://excalidraw.com/Cascadia.woff2");
      }
    </style>
  </defs>
  <g transform="translate(10 64.39999389648438) rotate(0 38 -27.199996948242188)" stroke="none"><path fill="#000000" d="M 0,-2.53 Q 0,-2.53 1.14,-2.56 2.28,-2.58 3.12,-3.27 3.96,-3.95 5.51,-5.58 7.07,-7.21 8.50,-8.31 9.94,-9.40 10.81,-10.35 11.68,-11.30 12.28,-12.56 12.89,-13.81 13.31,-15.16 13.74,-16.51 14.44,-18.07 15.14,-19.63 15.16,-20.78 15.17,-21.93 15.50,-23.04 15.83,-24.15 16.21,-25.27 16.60,-26.39 17.00,-27.41 17.40,-28.43 17.74,-30.20 18.08,-31.98 18.18,-33.53 18.29,-35.09 18.60,-36.77 18.91,-38.44 18.97,-39.65 19.03,-40.86 19.04,-41.95 19.04,-43.04 19.01,-44.41 18.99,-45.78 18.97,-46.92 18.96,-48.05 18.95,-49.24 18.94,-50.43 18.94,-51.63 18.93,-52.83 18.92,-53.28 18.91,-53.73 18.97,-54.15 19.02,-54.56 19.16,-54.95 19.31,-55.35 19.55,-55.69 19.79,-56.04 20.10,-56.32 20.42,-56.59 20.79,-56.79 21.16,-56.98 21.57,-57.08 21.98,-57.18 22.40,-57.18 22.81,-57.18 23.22,-57.08 23.63,-56.98 24.00,-56.79 24.37,-56.59 24.69,-56.31 25.00,-56.04 25.24,-55.69 25.48,-55.35 25.63,-54.95 25.77,-54.56 25.82,-54.15 25.88,-53.73 25.36,-52.15 24.85,-50.57 25.00,-49.18 25.15,-47.78 25.15,-46.66 25.15,-45.53 26.16,-44.18 27.18,-42.83 27.79,-41.82 28.39,-40.81 29.75,-39.67 31.10,-38.54 32.06,-37.64 33.03,-36.74 33.86,-35.92 34.70,-35.11 35.78,-34.16 36.87,-33.22 38.09,-32.26 39.30,-31.31 40.10,-30.48 40.90,-29.65 42.11,-29.02 43.33,-28.39 44.98,-27.54 46.63,-26.70 47.76,-25.76 48.89,-24.83 49.92,-24.51 50.94,-24.18 52.47,-23.80 54.00,-23.42 55.03,-22.91 56.06,-22.39 57.60,-22.21 59.14,-22.02 61.27,-21.66 63.40,-21.30 64.74,-21.22 66.07,-21.13 67.43,-21.11 68.78,-21.08 70.56,-21.05 72.33,-21.01 72.56,-21.83 72.80,-22.64 73.21,-22.59 73.62,-22.54 74.01,-22.39 74.40,-22.24 74.74,-22.01 75.08,-21.77 75.36,-21.46 75.63,-21.15 75.83,-20.78 76.02,-20.41 76.12,-20.01 76.22,-19.61 76.22,-19.19 76.22,-18.78 76.12,-18.37 76.02,-17.97 75.82,-17.60 75.63,-17.23 75.35,-16.92 75.08,-16.61 74.74,-16.38 74.39,-16.14 74.00,-16.00 73.62,-15.85 73.20,-15.80 72.79,-15.75 71.46,-16.38 70.14,-17.00 69.86,-17.49 69.58,-17.97 69.46,-18.51 69.35,-19.06 69.42,-19.61 69.49,-20.17 69.73,-20.67 69.97,-21.17 70.36,-21.57 70.75,-21.97 71.25,-22.22 71.74,-22.48 72.30,-22.56 72.85,-22.64 73.40,-22.54 73.94,-22.44 74.43,-22.18 74.92,-21.91 75.30,-21.50 75.68,-21.09 75.90,-20.58 76.13,-20.07 76.18,-19.51 76.23,-18.96 76.10,-18.41 75.98,-17.87 75.68,-17.40 75.39,-16.92 74.96,-16.57 74.53,-16.22 74.01,-16.02 73.49,-15.82 72.93,-15.80 72.37,-15.78 71.84,-15.93 71.30,-16.09 70.84,-16.41 70.39,-16.73 70.06,-17.18 69.73,-17.63 69.56,-18.16 69.39,-18.69 69.39,-19.25 69.40,-19.80 69.59,-20.33 69.78,-20.86 70.12,-21.29 70.46,-21.73 70.93,-22.04 71.40,-22.34 71.94,-22.49 72.47,-22.63 73.03,-22.59 73.59,-22.55 74.10,-22.33 74.62,-22.12 73.71,-22.38 72.80,-22.64 73.21,-22.59 73.62,-22.54 74.01,-22.39 74.40,-22.24 74.74,-22.01 75.08,-21.77 75.36,-21.46 75.63,-21.15 75.83,-20.78 76.02,-20.41 76.12,-20.01 76.22,-19.61 76.22,-19.19 76.22,-18.78 76.12,-18.37 76.02,-17.97 75.82,-17.60 75.63,-17.23 75.35,-16.92 75.08,-16.61 74.74,-16.38 74.39,-16.14 74.01,-16.00 73.62,-15.85 73.20,-15.80 72.79,-15.75 73.15,-14.96 73.51,-14.17 72.05,-14.17 70.60,-14.16 69.04,-14.16 67.49,-14.16 65.65,-14.21 63.81,-14.25 61.83,-14.56 59.85,-14.87 58.33,-14.96 56.80,-15.05 54.80,-15.85 52.81,-16.64 51.54,-16.68 50.27,-16.72 48.18,-17.62 46.09,-18.52 44.50,-19.67 42.91,-20.82 41.27,-21.57 39.62,-22.32 38.73,-22.90 37.83,-23.48 36.96,-24.41 36.09,-25.33 34.53,-26.39 32.97,-27.45 31.33,-28.76 29.70,-30.07 28.91,-30.85 28.12,-31.64 26.98,-32.68 25.83,-33.73 24.33,-35.02 22.84,-36.31 21.47,-38.06 20.10,-39.82 19.33,-41.27 18.56,-42.72 18.30,-44.13 18.04,-45.54 18.05,-46.69 18.05,-47.84 18.10,-49.29 18.15,-50.74 18.53,-52.24 18.91,-53.73 18.97,-54.15 19.02,-54.56 19.16,-54.95 19.31,-55.35 19.55,-55.69 19.79,-56.04 20.10,-56.32 20.42,-56.59 20.79,-56.79 21.16,-56.98 21.57,-57.08 21.98,-57.18 22.39,-57.18 22.81,-57.18 23.22,-57.08 23.63,-56.98 24.00,-56.79 24.37,-56.59 24.69,-56.32 25.00,-56.04 25.24,-55.69 25.48,-55.35 25.63,-54.95 25.77,-54.56 25.82,-54.15 25.88,-53.73 25.86,-52.76 25.85,-51.79 25.84,-50.60 25.83,-49.40 25.82,-48.22 25.81,-47.05 25.78,-45.53 25.76,-44.01 25.73,-42.77 25.70,-41.53 25.61,-40.27 25.52,-39.02 25.18,-36.95 24.84,-34.88 24.71,-33.45 24.59,-32.02 24.21,-30.29 23.83,-28.57 23.40,-26.94 22.98,-25.32 22.26,-23.41 21.54,-21.49 21.39,-20.30 21.24,-19.10 20.94,-17.97 20.64,-16.83 20.02,-15.55 19.41,-14.26 18.99,-13.10 18.57,-11.94 17.77,-10.73 16.96,-9.52 16.36,-8.63 15.76,-7.73 14.63,-6.41 13.51,-5.10 12.40,-4.09 11.30,-3.09 10.39,-2.19 9.47,-1.30 8.56,-0.52 7.65,0.25 6.28,1.16 4.92,2.07 3.62,2.33 2.31,2.58 1.15,2.56 0,2.53 -0.30,2.50 -0.60,2.46 -0.89,2.35 -1.17,2.24 -1.43,2.07 -1.68,1.89 -1.88,1.67 -2.08,1.44 -2.23,1.17 -2.37,0.89 -2.44,0.60 -2.51,0.30 -2.51,-0.00 -2.51,-0.30 -2.44,-0.60 -2.37,-0.89 -2.23,-1.17 -2.08,-1.44 -1.88,-1.67 -1.68,-1.89 -1.43,-2.07 -1.17,-2.24 -0.89,-2.35 -0.60,-2.46 -0.30,-2.50 0.00,-2.53 0.00,-2.53 L 0,-2.53 Z"></path></g><g transform="translate(35.60003662109375 28.399993896484375) rotate(0 104.79998779296875 93.19999694824219)" stroke="none"><path fill="#000000" d="M 2.64,0 Q 2.64,0 2.63,1.38 2.63,2.76 2.69,4.71 2.75,6.66 2.81,8.09 2.87,9.52 2.95,11.08 3.03,12.64 3.07,13.82 3.11,15.00 3.17,16.39 3.22,17.77 3.24,19.14 3.26,20.51 3.27,21.97 3.28,23.44 3.29,24.78 3.31,26.12 3.48,27.21 3.64,28.30 3.93,29.61 4.23,30.93 4.40,32.11 4.56,33.28 4.82,35.38 5.08,37.48 5.36,38.62 5.64,39.76 5.93,41.52 6.22,43.29 6.81,45.42 7.40,47.55 7.65,48.85 7.90,50.14 8.62,51.81 9.33,53.47 9.58,54.61 9.83,55.75 10.15,57.21 10.47,58.68 10.80,59.70 11.13,60.73 11.50,61.86 11.86,62.99 12.22,64.47 12.59,65.96 12.95,67.21 13.31,68.46 14.11,70.47 14.91,72.48 15.70,74.15 16.49,75.81 17.59,77.70 18.69,79.59 19.71,81.45 20.72,83.32 21.60,84.98 22.48,86.65 23.46,87.78 24.45,88.91 25.34,89.79 26.24,90.67 27.10,91.82 27.96,92.97 28.86,94.28 29.77,95.59 30.53,96.45 31.29,97.30 32.84,98.58 34.40,99.86 35.76,100.67 37.13,101.47 38.13,102.26 39.13,103.06 41.63,104.49 44.12,105.93 47.11,107.61 50.10,109.29 53.80,110.94 57.50,112.59 60.24,113.81 62.98,115.02 65.13,115.52 67.29,116.02 69.63,116.50 71.98,116.98 73.84,117.15 75.70,117.32 77.18,117.32 78.66,117.32 80.41,117.34 82.17,117.36 83.21,117.07 84.25,116.79 86.03,116.67 87.82,116.55 90.25,116.15 92.68,115.76 95.34,115.16 98.01,114.56 100.33,114.09 102.66,113.62 103.72,113.11 104.79,112.60 106.36,111.86 107.92,111.12 108.68,110.27 109.45,109.42 109.29,108.17 109.13,106.91 109.06,105.19 108.98,103.47 108.94,102.24 108.90,101.01 108.55,99.98 108.21,98.94 107.65,97.14 107.09,95.34 106.53,93.77 105.98,92.19 104.90,91.13 103.83,90.07 102.97,89.09 102.12,88.11 100.66,87.17 99.20,86.24 98.37,85.15 97.54,84.06 96.06,83.03 94.59,82.00 93.58,81.26 92.57,80.51 90.46,79.62 88.34,78.73 87.19,78.26 86.04,77.79 84.88,77.31 83.72,76.84 82.52,77.31 81.32,77.78 80.28,78.72 79.24,79.66 78.43,80.84 77.62,82.01 76.83,83.59 76.05,85.17 75.26,86.40 74.47,87.62 73.79,88.94 73.10,90.27 72.75,91.57 72.39,92.86 71.48,94.54 70.57,96.22 69.77,97.87 68.96,99.51 68.35,101.73 67.73,103.96 67.19,105.65 66.65,107.33 66.55,108.45 66.45,109.56 66.40,110.72 66.34,111.88 66.30,113.06 66.27,114.25 66.24,115.44 66.22,116.63 66.07,118.52 65.93,120.40 65.85,122.13 65.78,123.85 65.61,126.19 65.45,128.53 65.65,130.07 65.84,131.60 66.11,133.44 66.37,135.27 66.57,136.59 66.78,137.90 67.07,139.25 67.36,140.61 68.30,142.81 69.24,145.01 70.04,146.38 70.84,147.74 71.66,148.90 72.48,150.06 73.67,151.25 74.87,152.43 75.50,153.31 76.13,154.19 77.27,155.02 78.41,155.85 80.30,157.08 82.20,158.31 83.93,159.42 85.67,160.53 88.14,162.04 90.62,163.55 92.02,164.42 93.42,165.29 95.09,166.80 96.75,168.31 99.04,169.78 101.33,171.25 103.36,172.13 105.39,173.00 106.84,173.56 108.28,174.12 109.55,174.53 110.82,174.95 111.89,175.34 112.97,175.72 116.29,176.72 119.62,177.71 121.75,178.60 123.88,179.49 125.47,180.03 127.07,180.57 128.62,181.00 130.18,181.43 131.63,181.58 133.08,181.72 134.56,182.00 136.04,182.29 138.37,182.74 140.69,183.19 142.68,183.62 144.66,184.06 146.98,184.27 149.30,184.49 151.69,184.60 154.07,184.72 155.78,184.70 157.49,184.68 159.13,184.64 160.77,184.60 161.93,184.52 163.09,184.43 164.73,184.42 166.36,184.40 167.58,184.13 168.80,183.87 170.52,183.57 172.24,183.26 174.39,182.99 176.54,182.71 179.08,182.39 181.62,182.08 183.58,181.72 185.53,181.36 186.73,180.90 187.93,180.44 189.04,179.89 190.14,179.35 191.41,178.67 192.68,177.99 193.95,177.05 195.23,176.10 196.85,174.98 198.48,173.85 199.96,172.83 201.44,171.81 202.60,171.07 203.75,170.33 205.31,168.78 206.86,167.23 207.18,166.83 207.50,166.43 207.93,166.16 208.37,165.89 208.86,165.77 209.36,165.65 209.87,165.69 210.37,165.74 210.84,165.94 211.31,166.15 211.69,166.49 212.06,166.83 212.31,167.28 212.56,167.72 212.66,168.23 212.75,168.73 212.68,169.23 212.60,169.74 212.38,170.19 212.15,170.65 211.78,171.01 211.42,171.37 210.96,171.59 210.50,171.82 210.00,171.88 209.49,171.95 208.99,171.85 208.49,171.75 208.05,171.50 207.60,171.24 207.27,170.86 206.93,170.48 206.73,170.01 206.53,169.54 206.49,169.03 206.45,168.52 206.58,168.03 206.71,167.53 206.98,167.10 207.26,166.67 207.66,166.36 208.06,166.04 208.54,165.87 209.02,165.69 209.53,165.68 210.04,165.67 210.53,165.83 211.01,165.98 211.43,166.28 211.84,166.58 212.13,166.99 212.43,167.41 212.58,167.90 212.72,168.39 212.71,168.90 212.69,169.41 212.51,169.89 212.33,170.36 212.33,170.36 212.33,170.36 210.47,171.85 208.62,173.34 207.58,174.53 206.54,175.71 205.40,176.21 204.26,176.71 202.71,177.63 201.16,178.56 200.14,179.14 199.11,179.72 197.44,180.54 195.77,181.36 193.98,182.25 192.18,183.14 190.59,183.53 189.00,183.93 187.59,184.26 186.18,184.60 184.16,185.03 182.14,185.46 179.66,185.91 177.18,186.37 175.09,186.83 173.00,187.30 171.24,187.65 169.48,188.00 167.92,188.19 166.37,188.38 164.72,188.36 163.07,188.34 161.91,188.25 160.74,188.15 159.09,188.09 157.43,188.03 155.70,187.95 153.98,187.87 151.53,187.84 149.08,187.82 146.52,187.71 143.97,187.60 142.05,187.26 140.13,186.92 137.62,186.65 135.10,186.37 133.84,186.03 132.58,185.68 130.83,185.42 129.09,185.17 127.44,184.66 125.80,184.15 124.20,183.56 122.60,182.97 120.46,182.29 118.33,181.61 116.14,181.01 113.96,180.40 111.66,179.61 109.37,178.82 108.07,178.27 106.76,177.72 105.41,177.10 104.05,176.47 101.66,175.64 99.26,174.81 96.54,173.35 93.82,171.90 92.35,170.85 90.89,169.80 89.26,168.98 87.63,168.15 86.37,167.41 85.11,166.67 83.78,166.07 82.46,165.46 81.44,164.81 80.42,164.16 79.48,163.55 78.54,162.94 77.03,161.92 75.52,160.91 74.20,160.06 72.87,159.22 72.09,158.28 71.32,157.35 70.52,156.24 69.73,155.14 68.99,154.30 68.25,153.45 67.46,152.06 66.66,150.66 65.81,148.78 64.95,146.91 64.30,145.42 63.65,143.93 63.31,142.71 62.97,141.49 62.69,139.94 62.40,138.39 62.33,137.19 62.25,136.00 61.86,134.10 61.47,132.20 61.20,130.37 60.94,128.53 60.78,126.19 60.62,123.85 60.54,122.12 60.47,120.40 60.33,118.50 60.19,116.60 60.18,115.39 60.17,114.17 60.16,112.94 60.15,111.71 60.16,110.43 60.17,109.16 60.23,107.79 60.28,106.42 60.99,103.73 61.70,101.05 62.09,99.65 62.48,98.25 63.35,96.22 64.22,94.19 64.83,93.01 65.45,91.84 65.97,90.63 66.50,89.42 67.39,87.37 68.29,85.33 68.97,84.14 69.66,82.94 70.62,81.32 71.58,79.70 72.36,78.44 73.13,77.17 74.08,75.93 75.04,74.69 75.74,73.84 76.44,72.99 77.79,72.42 79.14,71.85 80.64,71.49 82.14,71.13 83.51,71.00 84.88,70.87 86.10,71.23 87.32,71.60 88.76,72.31 90.20,73.02 91.81,73.49 93.41,73.96 94.79,74.59 96.16,75.22 97.28,75.92 98.40,76.63 99.73,77.63 101.07,78.63 101.90,79.33 102.74,80.03 103.47,80.91 104.20,81.79 105.17,82.39 106.15,82.98 107.38,84.33 108.61,85.68 109.58,86.83 110.56,87.97 111.42,89.65 112.28,91.33 112.70,92.36 113.12,93.38 113.49,94.45 113.86,95.52 114.12,96.58 114.37,97.65 114.73,98.73 115.10,99.81 115.07,101.10 115.05,102.39 115.01,103.66 114.96,104.93 114.85,106.44 114.75,107.94 114.54,109.07 114.34,110.19 113.74,111.11 113.15,112.03 112.00,112.98 110.85,113.93 109.49,114.57 108.13,115.22 107.08,115.57 106.03,115.92 104.69,116.31 103.35,116.69 101.08,117.25 98.82,117.81 96.10,118.56 93.37,119.31 90.71,119.91 88.04,120.51 86.48,120.58 84.93,120.64 83.52,120.79 82.12,120.94 80.30,120.89 78.47,120.84 76.93,120.68 75.39,120.52 73.40,120.32 71.40,120.12 69.01,119.74 66.61,119.35 64.10,118.90 61.60,118.44 58.78,117.40 55.96,116.36 52.00,114.87 48.05,113.39 44.91,112.01 41.78,110.64 38.54,109.22 35.29,107.80 33.80,106.76 32.31,105.72 30.62,104.39 28.92,103.07 27.89,102.26 26.86,101.45 25.29,99.63 23.72,97.81 23.33,96.68 22.95,95.55 21.47,94.23 19.99,92.91 18.70,91.27 17.41,89.63 16.58,87.96 15.75,86.29 15.03,85.10 14.31,83.92 13.50,82.13 12.68,80.35 11.56,78.28 10.44,76.21 9.97,75.22 9.50,74.22 9.17,73.19 8.84,72.15 8.38,71.14 7.91,70.13 7.48,68.81 7.05,67.49 6.64,66.17 6.23,64.86 5.84,63.72 5.45,62.59 5.10,61.54 4.76,60.49 4.42,58.63 4.08,56.78 3.66,55.16 3.24,53.53 2.82,52.45 2.40,51.36 1.98,49.12 1.56,46.88 1.11,45.71 0.67,44.54 0.21,42.95 -0.24,41.36 -0.64,40.02 -1.03,38.68 -1.36,37.20 -1.68,35.71 -1.84,34.13 -2.00,32.55 -2.36,31.36 -2.72,30.16 -3.02,28.14 -3.31,26.12 -3.29,24.78 -3.28,23.44 -3.27,21.97 -3.26,20.51 -3.24,19.14 -3.22,17.77 -3.17,16.39 -3.11,15.00 -3.07,13.82 -3.03,12.64 -2.95,11.08 -2.87,9.52 -2.81,8.09 -2.75,6.66 -2.69,4.71 -2.63,2.76 -2.63,1.38 -2.64,0 -2.60,-0.31 -2.56,-0.63 -2.45,-0.93 -2.34,-1.22 -2.16,-1.49 -1.98,-1.75 -1.74,-1.96 -1.50,-2.17 -1.22,-2.32 -0.93,-2.47 -0.62,-2.55 -0.31,-2.62 0.00,-2.62 0.31,-2.62 0.62,-2.55 0.93,-2.47 1.22,-2.32 1.50,-2.17 1.74,-1.96 1.98,-1.75 2.16,-1.49 2.34,-1.22 2.45,-0.93 2.56,-0.63 2.60,-0.31 2.64,0.00 2.64,0.00 L 2.64,0 Z"></path></g></svg>